<svg width="30" height="30" viewBox="0 0 30 30" fill="none" xmlns="http://www.w3.org/2000/svg">
<path d="M15 30C23.2843 30 30 23.2843 30 15C30 6.71573 23.2843 0 15 0C6.71573 0 0 6.71573 0 15C0 23.2843 6.71573 30 15 30Z" fill="#474658"/>
<path d="M10.5971 8.20306C11.2439 8.20306 11.8343 8.26066 12.3683 8.37466C12.9023 8.48866 13.3583 8.67586 13.7387 8.93626C14.1191 9.19666 14.4143 9.54226 14.6243 9.97426C14.8343 10.4063 14.9387 10.9391 14.9387 11.5739C14.9387 12.2591 14.7827 12.8303 14.4719 13.2875C14.1611 13.7447 13.7003 14.1191 13.0919 14.4107C13.9295 14.6519 14.5547 15.0743 14.9675 15.6767C15.3803 16.2791 15.5867 17.0063 15.5867 17.8571C15.5867 18.5423 15.4535 19.1363 15.1871 19.6379C14.9207 20.1395 14.5619 20.5487 14.1107 20.8655C13.6595 21.1835 13.1459 21.4175 12.5687 21.5699C11.9879 21.7223 11.3891 21.7991 10.7891 21.7979H4.19995V8.20306H10.5971ZM10.2167 13.7051C10.7495 13.7051 11.1875 13.5779 11.5307 13.3247C11.8739 13.0703 12.0455 12.6587 12.0443 12.0875C12.0443 11.7707 11.9867 11.5103 11.8727 11.3075C11.7587 11.1047 11.6063 10.9451 11.4155 10.8311C11.2247 10.7171 11.0063 10.6379 10.7591 10.5935C10.5047 10.5491 10.2467 10.5263 9.98752 10.5275H7.19033V13.7075L10.2167 13.7051ZM10.3883 19.4735C10.6703 19.4747 10.9511 19.4459 11.2259 19.3883C11.4923 19.3307 11.7275 19.2359 11.9303 19.1027C12.1331 18.9695 12.2951 18.7883 12.4163 18.5603C12.5363 18.3323 12.5975 18.0395 12.5975 17.6843C12.5975 16.9871 12.4007 16.4879 12.0071 16.1903C11.6135 15.8915 11.0927 15.7427 10.4459 15.7427H7.19033V19.4747L10.3883 19.4735ZM19.3475 19.1879C19.7531 19.5815 20.3375 19.7783 21.0995 19.7783C21.6455 19.7783 22.1146 19.6415 22.5082 19.3691C22.9018 19.0967 23.143 18.8075 23.2318 18.5027H25.6114C25.231 19.6835 24.6466 20.5271 23.8594 21.0347C23.0722 21.5423 22.1207 21.7967 21.0035 21.7967C20.2295 21.7967 19.5311 21.6731 18.9095 21.4259C18.2879 21.1787 17.7611 20.8259 17.3291 20.3687C16.8971 19.9115 16.5635 19.3667 16.3295 18.7319C16.0955 18.0971 15.9779 17.3987 15.9779 16.6379C15.9779 15.9023 16.0979 15.2171 16.3391 14.5823C16.5803 13.9475 16.9235 13.3991 17.3675 12.9359C17.8115 12.4727 18.3419 12.1079 18.9575 11.8415C19.5731 11.5751 20.2559 11.4419 21.0047 11.4419C21.8423 11.4419 22.5718 11.6039 23.1946 11.9279C23.8162 12.2519 24.3274 12.6863 24.727 13.2323C25.1266 13.7783 25.4158 14.3999 25.5934 15.0983C25.771 15.7967 25.8346 16.5263 25.7842 17.2883H18.6827C18.7199 18.1607 18.9419 18.7955 19.3475 19.1879ZM22.4038 14.0099C22.0798 13.6547 21.5879 13.4771 20.9279 13.4771C20.4959 13.4771 20.1371 13.5503 19.8527 13.6955C19.5671 13.8419 19.3391 14.0219 19.1675 14.2379C18.9959 14.4539 18.8759 14.6819 18.8063 14.9231C18.7367 15.1643 18.6947 15.3803 18.6827 15.5699H23.0806C22.9522 14.8859 22.7266 14.3651 22.4038 14.0099ZM18.2195 8.89306H23.7142V10.4171H18.2195V8.89306Z" fill="#C38672"/>
</svg>
