<svg width="31" height="30" viewBox="0 0 31 30" fill="none" xmlns="http://www.w3.org/2000/svg">
<circle cx="16" cy="15" r="15" fill="#C38672"/>
<path d="M16 0C7.71566 0 1 6.71566 1 15C1 23.2843 7.71566 29.9999 16 29.9999C24.2843 29.9999 31 23.2843 31 15C30.9999 6.71566 24.2842 0 16 0ZM11.9979 22.2518H8.70455V11.6117H11.9979V22.2518ZM10.3356 10.2184C9.25997 10.2184 8.38802 9.33929 8.38802 8.25509C8.38802 7.17077 9.26009 6.29176 10.3356 6.29176C11.411 6.29176 12.283 7.17077 12.283 8.25509C12.283 9.33935 11.4111 10.2184 10.3356 10.2184ZM24.3399 22.2518H21.0625V16.6666C21.0625 15.1348 20.4806 14.2797 19.2694 14.2797C17.9511 14.2797 17.2624 15.1703 17.2624 16.6666V22.2518H14.1037V11.6117H17.2624V13.0448C17.2624 13.0448 18.2126 11.2872 20.4687 11.2872C22.7249 11.2872 24.34 12.6648 24.34 15.5147L24.3399 22.2518Z" fill="#474658"/>
</svg>
